<?xml version="1.0" encoding="utf-8"?>
<!-- Generator: Adobe Illustrator 22.1.0, SVG Export Plug-In . SVG Version: 6.00 Build 0)  -->
<svg version="1.1" id="_x32_" xmlns="http://www.w3.org/2000/svg" xmlns:xlink="http://www.w3.org/1999/xlink" x="0px" y="0px"
	 viewBox="0 0 512 512" style="enable-background:new 0 0 512 512;" xml:space="preserve">
<g>
	<path d="M289.4,40.7c-40.9,0-76.2,23.8-93,58.3c-16.8-34.5-52.1-58.3-93-58.3C46.3,40.7,0,87,0,144.1
		c0,57.1,46.3,103.3,103.4,103.3h186c57.1,0,103.4-46.2,103.4-103.3C392.7,87,346.5,40.7,289.4,40.7z M103.4,183.1
		c-21.6,0-39.1-17.5-39.1-39.1c0-21.6,17.5-39.1,39.1-39.1c21.6,0,39.1,17.5,39.1,39.1C142.4,165.6,124.9,183.1,103.4,183.1z
		 M289.4,183.1c-21.6,0-39.1-17.5-39.1-39.1c0-21.6,17.5-39.1,39.1-39.1c21.6,0,39.1,17.5,39.1,39.1
		C328.5,165.6,311,183.1,289.4,183.1z"/>
	<path d="M332.1,271H53.8c-11.1,0-20.1,9-20.1,20v160.2c0,11.1,9,20.1,20.1,20.1h278.3c11.1,0,20.1-9,20.1-20.1V291
		C352.2,280,343.2,271,332.1,271z"/>
	<path d="M504.3,306.7c-4.8-3.8-11.2-5.2-17.2-3.7l-97.8,23.8c-9,2.2-15.3,10.2-15.3,19.5v47.5c0,9.2,6.3,17.3,15.3,19.5l97.8,23.9
		c6,1.4,12.3,0.1,17.2-3.7c4.8-3.8,7.7-9.6,7.7-15.8v-95.2C512,316.3,509.2,310.5,504.3,306.7z"/>
</g>
</svg>
