<?xml version="1.0" encoding="utf-8"?>
<!-- Generator: Adobe Illustrator 22.1.0, SVG Export Plug-In . SVG Version: 6.00 Build 0)  -->
<svg version="1.1" id="レイヤー_1" xmlns="http://www.w3.org/2000/svg" xmlns:xlink="http://www.w3.org/1999/xlink" x="0px"
	 y="0px" viewBox="0 0 560.1 114.3" style="enable-background:new 0 0 560.1 114.3;" xml:space="preserve">
<style type="text/css">
	.st0{fill:#FFDE00;}
	.st1{fill:none;stroke:#000000;stroke-width:0.8222;stroke-miterlimit:10;}
	.st2{fill:#FFFFFF;}
	.st3{fill:#C10032;}
</style>
<g>
	<path class="st0" d="M81.5,88.8c-14.1,0.1-23.4,3.6-32.7,13.6C39.4,92.4,30.1,88.9,16,88.8c-0.1-14.1-3.6-23.4-13.6-32.7
		c9.9-9.3,13.5-18.6,13.6-32.7c14.1-0.1,23.4-3.6,32.7-13.6c9.3,9.9,18.6,13.5,32.7,13.6c0.1,14.1,3.6,23.4,13.6,32.7
		C85.1,65.4,81.5,74.7,81.5,88.8z"/>
	<path class="st1" d="M81.5,88.8c-14.1,0.1-23.4,3.6-32.7,13.6C39.4,92.4,30.1,88.9,16,88.8c-0.1-14.1-3.6-23.4-13.6-32.7
		c9.9-9.3,13.5-18.6,13.6-32.7c14.1-0.1,23.4-3.6,32.7-13.6c9.3,9.9,18.6,13.5,32.7,13.6c0.1,14.1,3.6,23.4,13.6,32.7
		C85.1,65.4,81.5,74.7,81.5,88.8z"/>
</g>
<g>
	<path class="st2" d="M93.6,56.1c-15,4.1-15.8,8.1-3.5,17.5c-15.3-2.2-17.5,1-9.6,14.3C67.2,80,64,82.1,66.2,97.4
		C56.8,85.2,52.9,86,48.7,101c-4.1-15-8.1-15.8-17.5-3.5c2.2-15.3-1-17.5-14.3-9.6c7.9-13.3,5.7-16.5-9.6-14.3
		c12.3-9.4,11.4-13.3-3.5-17.5c15-4.1,15.8-8.1,3.5-17.5c15.3,2.2,17.5-1,9.6-14.3c13.3,7.9,16.5,5.7,14.3-9.6
		c9.4,12.3,13.3,11.4,17.5-3.5c4.1,15,8.1,15.8,17.5,3.5c-2.2,15.3,1,17.5,14.3,9.6c-7.9,13.3-5.7,16.5,9.6,14.3
		C77.8,48,78.7,52,93.6,56.1z"/>
	<path class="st1" d="M93.6,56.1c-15,4.1-15.8,8.1-3.5,17.5c-15.3-2.2-17.5,1-9.6,14.3C67.2,80,64,82.1,66.2,97.4
		C56.8,85.2,52.9,86,48.7,101c-4.1-15-8.1-15.8-17.5-3.5c2.2-15.3-1-17.5-14.3-9.6c7.9-13.3,5.7-16.5-9.6-14.3
		c12.3-9.4,11.4-13.3-3.5-17.5c15-4.1,15.8-8.1,3.5-17.5c15.3,2.2,17.5-1,9.6-14.3c13.3,7.9,16.5,5.7,14.3-9.6
		c9.4,12.3,13.3,11.4,17.5-3.5c4.1,15,8.1,15.8,17.5,3.5c-2.2,15.3,1,17.5,14.3,9.6c-7.9,13.3-5.7,16.5,9.6,14.3
		C77.8,48,78.7,52,93.6,56.1z"/>
</g>
<g>
	<path class="st3" d="M33.8,55.3c0-8.9,6-18.5,15.7-18.5c6.3,0,10.8,4.6,10.8,10.9c0,1.8-1.5,3.3-3.3,3.3c-1.8,0-3.2-1.5-3.2-3.3
		c0-2.3,2.4-3.9,4.5-3c-1.2-4-4.2-6.3-8.8-6.3c-5.1,0-9.2,4.1-9.2,9.3v15.2c0,5.1,4.2,9.4,9.2,9.4c6.2,0,9.3-4.4,9.2-10h1.6
		c0,6.4-3.8,11.5-10.8,11.5C39.8,73.8,33.8,64.2,33.8,55.3z"/>
</g>
<g>
	<path class="st0" d="M103.9,52.7c0-16.3,11-34,28.9-34c11.6,0,19.9,8.4,19.9,20c0,3.3-2.8,6.1-6.1,6.1s-6-2.7-6-6.1
		c0-4.2,4.3-7.2,8.3-5.6c-2.2-7.4-7.8-11.6-16.1-11.6c-9.4,0-17,7.5-17,17.2v27.9c0,9.4,7.7,17.2,17,17.2c11.4,0,17.1-8.1,17-18.4
		h2.9c0,11.8-7,21.2-19.9,21.2C115,86.7,103.9,69,103.9,52.7z"/>
	<path class="st0" d="M157,83.9h8.7V49.7H157v-2.9l20.2,0.1v37h8.7v2.8c-13.7,0-8.2,0-28.9,0L157,83.9L157,83.9z M165.7,34.4
		c0-3.3,2.6-6.1,5.8-6.1s5.8,2.8,5.8,6.1c0,3.4-2.6,6.1-5.8,6.1C168.3,40.5,165.7,37.8,165.7,34.4z"/>
	<path class="st0" d="M216.6,86.7v-2.8h9V50.5c-5.4,0.6-11.6,4.4-15.6,8.2v13.2v14.8h-21.1v-2.8h9V50.4h-9v-2.8h21.1V55
		c4.6-3.8,11-7.4,17.1-7.4c6.2,0,10.7,4.4,10.7,10.5v25.8h9v2.8L216.6,86.7L216.6,86.7z"/>
	<path class="st0" d="M270.7,79.3c0-2.4,1.9-4.4,4.4-4.4c2.4,0,4.3,2,4.3,4.4c0,5.9-6.6,7.4-10.4,7.4c-11.2,0-19.6-8.4-19.6-19.6
		c0-10.7,8.9-19.5,19.6-19.5c11.9,0,19.5,9.6,19.6,20.9h-27.3v7.6c0,4.2,3.5,7.7,7.7,7.7c1.3,0,2.8-0.2,4.1-0.7
		C271.7,82.6,270.7,81,270.7,79.3z M276.8,58.1c0-4.4-3.3-7.7-7.7-7.7c-4.5,0-7.6,3.2-7.7,7.7c0,2.2,0.1,5.2,0,7.7h15.4L276.8,58.1
		L276.8,58.1z"/>
	<path class="st0" d="M347.8,86.7v-2.8h9.1V50.5c-5.5,0.6-11.8,4.4-15.8,8.2v28h-21.4v-2.8h9.1V50.5c-5.5,0.6-11.8,4.4-15.8,8.2v28
		h-21.4v-2.8h9.2V50.4h-9.2v-2.8h21.4V55c4.8-4,11-7.4,17.6-7.4c4.9,0,8.9,3.4,10.1,7.7c4.9-4.1,11-7.7,17.9-7.7
		c6.6,0,10.5,4.2,10.5,10.5c0,8.6,0,17.2,0,25.8h9.2v2.8L347.8,86.7L347.8,86.7z"/>
	<path class="st0" d="M408.7,86.7v-1.6c-2.5,1.1-5.2,1.6-7.8,1.6c-11,0-19.8-8.7-19.8-19.6c0-10.8,8.9-19.6,19.8-19.6
		c2.7,0,5.3,0.6,7.8,1.6v-1.6h11.9v36.3h9v2.8C429.6,86.7,408.7,86.7,408.7,86.7z M408.7,58.1c0-4.2-3.6-7.7-7.8-7.7
		s-7.8,3.5-7.8,7.7c0,18.2,0,0,0,18.2c0,4.8,2.9,7.7,7.8,7.7c4.2,0,7.8-3.5,7.8-7.7V58.1z"/>
	<path class="st0" d="M459.5,58.1c0-3.6,3.2-6.4,6.6-5.9c-1.4-1.3-3.1-1.8-5.3-1.8c-4.5,0-7.7,3.2-7.7,7.7v25.8h8.8v2.8h-29.4v-2.8
		h8.9V50.4h-8.9v-2.8c6.5,0,14,0,20.6,0.1v3.1c1.9-2.1,4.5-3.2,7.7-3.2c6.2,0,10.5,4.4,10.5,10.5c0,3.3-2.7,6-6,6
		S459.5,61.4,459.5,58.1z"/>
	<path class="st0" d="M501.8,86.7v-2.9h8.9c-0.5-4.6-3.7-7.5-7.4-10.4c-2.9-2.2-5.9-4.4-8.1-7.4v20.7h-20.9v-2.9h9V21.6h-9v-2.8
		l20.9-0.1v31.1c1.8-2.1,4.5-3.2,7.8-3.2c6.2,0,10.5,4.5,10.5,10.7c0,3.4-2.7,6.2-6,6.2s-6-2.8-6-6.2c0-3.6,3.2-6.5,6.7-6
		c-1.3-1.3-3.2-1.8-5.3-1.8c-4.6,0-7.8,3.2-7.8,7.8c0,6.3,4.1,9.4,8.6,12.8c4.5,3.5,9.1,7.1,9.7,13.7h9v2.9H501.8z"/>
	<path class="st0" d="M540.1,50.4c-1.9,0-3.1,1.3-3.1,3.2s1.1,3,3.2,3.2c8.6,0.7,14.6,5.2,14.6,14.9c0,8.9-6.6,14.9-15,14.9
		c-8.6,0-14.5-6.3-14.5-14.9c0-3.3,2.6-5.9,5.8-5.9c3.3,0,5.9,2.6,5.9,5.9c0,4-4,6.9-7.7,5.6c1.8,4.3,5.6,6.6,10.8,6.6
		c1.6,0,3.1-1.4,3.1-3.2V62.6c0-1.8-1.3-3.2-3.1-3.2c-3.4,0-5.9-2.5-5.9-5.9c0-3.5,2.5-6,5.9-6c3.3,0,5.8,2.6,5.8,6
		c0,2-1.6,3.7-3.6,3.7c-2,0-3.6-1.6-3.6-3.7c0-1.3,0.7-2.5,1.7-3.2C540.4,50.4,540.2,50.4,540.1,50.4z"/>
</g>
</svg>
